inDegrees=no
num_controls=7
num_derivatives=13
num_iterations=113
num_multipliers=7
num_parameters=0
num_slacks=7
num_states=26
objective=5.603741
objective_accelerations=0.807636
objective_balance=0.026273
objective_effort=0.246677
objective_height=4.403062
objective_ligament=0.120093
solver_duration=1341.122207
status=Solve_Succeeded
success=true
DataType=double
version=3
OpenSimVersion=4.4-2022-07-23-0e9fedc
endheader
time	/jointset/ground_pelvis/pelvis_tilt/value	/jointset/ground_pelvis/pelvis_tx/value	/jointset/ground_pelvis/pelvis_ty/value	/jointset/hip_l/hip_flexion_l/value	/jointset/hip_l/hip_adduction_l/value	/jointset/hip_l/hip_rotation_l/value	/jointset/back/lumbar_extension/value	/jointset/patellofemoral_l/patellar_flexion_l/value	/jointset/knee_l/knee_flexion_l/value	/jointset/knee_l/knee_adduction_l/value	/jointset/knee_l/knee_rotation_l/value	/jointset/ankle_l/ankle_angle_l/value	/jointset/subtalar_l/subtalar_angle_l/value	/jointset/ground_pelvis/pelvis_tilt/speed	/jointset/ground_pelvis/pelvis_tx/speed	/jointset/ground_pelvis/pelvis_ty/speed	/jointset/hip_l/hip_flexion_l/speed	/jointset/hip_l/hip_adduction_l/speed	/jointset/hip_l/hip_rotation_l/speed	/jointset/back/lumbar_extension/speed	/jointset/patellofemoral_l/patellar_flexion_l/speed	/jointset/knee_l/knee_flexion_l/speed	/jointset/knee_l/knee_adduction_l/speed	/jointset/knee_l/knee_rotation_l/speed	/jointset/ankle_l/ankle_angle_l/speed	/jointset/subtalar_l/subtalar_angle_l/speed	/forceset/tau_hip_flexion_l	/forceset/tau_hip_adduction_l	/forceset/tau_hip_rotation_l	/forceset/tau_knee_flexion_l	/forceset/tau_ankle_angle_l	/forceset/tau_subtalar_angle_l	/forceset/tau_lumbar_extension	lambda_cid13_p0	lambda_cid13_p1	lambda_cid13_p2	lambda_cid13_p3	lambda_cid13_p4	lambda_cid13_p5	lambda_cid14_p0	/jointset/ground_pelvis/pelvis_tilt/accel	/jointset/ground_pelvis/pelvis_tx/accel	/jointset/ground_pelvis/pelvis_ty/accel	/jointset/hip_l/hip_flexion_l/accel	/jointset/hip_l/hip_adduction_l/accel	/jointset/hip_l/hip_rotation_l/accel	/jointset/back/lumbar_extension/accel	/jointset/patellofemoral_l/patellar_flexion_l/accel	/jointset/knee_l/knee_flexion_l/accel	/jointset/knee_l/knee_adduction_l/accel	/jointset/knee_l/knee_rotation_l/accel	/jointset/ankle_l/ankle_angle_l/accel	/jointset/subtalar_l/subtalar_angle_l/accel	gamma_cid13_p0	gamma_cid13_p1	gamma_cid13_p2	gamma_cid13_p3	gamma_cid13_p4	gamma_cid13_p5	gamma_cid14_p0
0.5	-0.4277121476570251	-0.08323126084346835	0.7535548840684053	1.282500264686042	-0.3472001305947152	-0.04296258427611739	-0.4141093377377826	0.7966299507274838	0.7966299507274667	-0.03283175719462596	-0.1745063704905306	0.05449766792004545	0.09033195932245867	-1.328572947744414	-0.4185520503555837	-0.5919611004821111	3.111143610290638	0.04462973918241567	0.498454087284619	-0.2622905079784631	1.546294162551345	1.546294162551364	0.200377902796279	0.0004167017642652575	-0.1275541327483541	0.001801556933664147	-0.1723720624154933	-0.003950765314173317	0.0004575654556188837	-0.1613757281535638	0.1136272966510396	0.01873743752086597	0.1556497964887551	12.33291714579176	-8.06811868414079	-1.540733955154381	-11.16796395930407	-436.4234938781448	-71.97889206182647	-11.16670899459336	0.7434012286541368	0.8613043813836182	-0.3936486830356511	-2.11236560834371	0.2130234745438347	-0.5539490503713995	1.788877171507743	-1.383010005243967	-1.383010005243976	-0.3266944466566558	0.003190293735500484	-0.1448788348231364	0.1857548100211283	-2.501004748160898e-07	-8.969703113521795e-08	2.048644459827324e-06	5.800856606305016e-08	-6.346270741171548e-07	8.6137151674681e-07	-3.668225411538652e-07
0.51	-0.4409576406471409	-0.08737315176083839	0.7476171335632232	1.313500024317273	-0.3467451871562377	-0.03800408378601052	-0.4166443469184265	0.8120211278460688	0.8120211278460465	-0.03084930717497443	-0.1745022655805575	0.05321452637952308	0.0903569999680412	-1.320346934343791	-0.409781853327979	-0.5954453411196103	3.088379715941988	0.04634870221343527	0.4931888155680639	-0.244726606040635	1.531712023655556	1.531712023655552	0.1961051143185928	0.0003974398776948575	-0.1290646025196736	0.003198927827842398	-0.1795136837854356	-0.003835357424501967	-5.014827269179087e-06	-0.1624438003941875	0.1159337044579929	0.01947591775290754	0.160634180767509	12.88189014996483	-8.304489340012855	-1.709193408334246	-11.56595719033872	-440.7450660467703	-72.30296618036158	-10.52435633558169	0.8889582514941906	0.8915314958134664	-0.3043852420474245	-2.422754300162111	0.1496045531360804	-0.5217119783216073	1.737855021575702	-1.530128716175351	-1.530128716178684	-0.4786071030343118	-0.005093112215911604	-0.1526961018298956	0.1153475765999198	-2.439755809324826e-07	-3.07250241018247e-08	2.058298622108974e-06	6.343893315905635e-08	-5.904629298169722e-07	8.957344363993806e-07	-3.592672309014543e-07
0.52	-0.4541155221321171	-0.09142600988146003	0.7416488259540783	1.344259274414633	-0.3462733997202991	-0.03310001516226781	-0.4190041754163549	0.8272596209987932	0.8272596209987787	-0.02890979225101717	-0.1744984750258964	0.05191656713057843	0.09039573819206251	-1.311050646714004	-0.4007454910058991	-0.5980725212746634	3.063041703511905	0.04799853867465433	0.4875677140105462	-0.2272543714365666	1.515757369382611	1.515757369382585	0.1917908836525136	0.000353830696622361	-0.1305176744327407	0.00454107262136628	-0.1866553051550873	-0.003719949534800343	-0.0004675951099685923	-0.1635118726348284	0.1182401122649086	0.02021439798496739	0.165618565046574	13.43064354900169	-8.54233767814009	-1.875684699492953	-11.97758050437731	-445.0746870539187	-72.6985063077036	-9.885907258107645	0.957456074487202	0.9145374402784657	-0.2222365865464652	-2.627189224630288	0.1991981605836296	-0.6251150185642034	1.770543704756063	-1.657513080674937	-1.657513080674851	-0.3349828843352091	-0.001679165165276697	-0.1333992631729287	0.1747095898900805	-2.36896364856828e-07	2.299069541377256e-08	2.057328818218334e-06	6.872720664717355e-08	-5.46919087783817e-07	9.234461656904263e-07	-3.502951501689462e-07
0.53	-0.4671752969308756	-0.0953872985174882	0.7356585143558312	1.374752772376606	-0.3457853524127579	-0.02825361065168106	-0.4211898427906516	0.8423320118691329	0.842332011869149	-0.02701353217620648	-0.1744950061776377	0.05060445065731063	0.09044776144100693	-1.300731489030533	-0.3914790871915859	-0.5998455542940062	3.035250841561382	0.04959996299624052	0.4816627238699008	-0.2099202041700998	1.498509302705704	1.498509302705772	0.1874570723574879	0.0003368957383847525	-0.1318925842348652	0.005856192577790886	-0.1937451283825596	-0.003719226329136114	-0.0008822747702406779	-0.164524978036874	0.1203993766977093	0.02077772800243149	0.1704722279945941	13.92018643582461	-8.699354008238437	-2.048663591513603	-12.27870874762296	-449.3674848244879	-72.95470368443772	-9.252376605409259	1.095021764098803	0.9376785037219642	-0.1333048571810088	-2.916150097550343	0.1387593784933384	-0.5810558382560619	1.708688125707835	-1.790109641450114	-1.790109641436087	-0.4831601417254745	-0.001742589068156889	-0.1375771477278432	0.1085543175099123	-2.301602496544868e-07	3.895481953511766e-08	2.022687452689303e-06	6.815053605576346e-08	-5.080266738030064e-07	9.531853003430224e-07	-3.440477157157028e-07
0.54	-0.4801267049230433	-0.09925492578503101	0.7296547787878803	1.404956138635628	-0.3452816618998925	-0.02346782900779754	-0.423203401514656	0.8572255908366541	0.8572255908366909	-0.02516072619225766	-0.1744917150644952	0.04927897702422183	0.09051266411331421	-1.289377285394152	-0.3820132173088205	-0.6007573152153918	3.005015362919396	0.05112717973972814	0.4754431406716038	-0.1928326413789754	1.479994988818741	1.479994988818903	0.1831000654768835	0.0003182836635440132	-0.1331891063968197	0.00711695729386182	-0.2008349516098701	-0.003718503123519359	-0.001296954430443498	-0.1655380834389359	0.1225586411304711	0.02134105801983322	0.1753258909428009	14.40871626076948	-8.858253539393303	-2.218987736667746	-12.59313744242448	-453.6829496407712	-73.28231271600598	-8.624940163278101	1.16446526506963	0.9544306539687096	-0.04998216695506624	-3.116112562922793	0.1843566449638696	-0.6880336300946964	1.721222809687794	-1.910762522685902	-1.910762522685935	-0.3396220014509079	-0.002014588486139703	-0.1177217351391827	0.1638385418192152	-2.23803735418365e-07	1.315122109260884e-08	1.950792444496522e-06	6.108499116359969e-08	-4.742805206460664e-07	9.851675217786102e-07	-3.4081478352888e-07
